<svg xmlns="http://www.w3.org/2000/svg" xmlns:xlink="http://www.w3.org/1999/xlink" width="1128" zoomAndPan="magnify" viewBox="0 0 846 143.249994" height="191" preserveAspectRatio="xMidYMid meet" version="1.0"><defs><g/><clipPath id="6e05918acc"><path d="M 9 10.1875 L 136 10.1875 L 136 131 L 9 131 Z M 9 10.1875 " clip-rule="nonzero"/></clipPath></defs><g fill="#303030" fill-opacity="1"><g transform="translate(159.653246, 124.100374)"><g><path d="M 9.515625 -102.109375 L 30.765625 -102.109375 L 30.765625 -64.34375 C 31.984375 -65.925781 33.3125 -67.441406 34.75 -68.890625 C 36.195312 -70.335938 37.804688 -71.617188 39.578125 -72.734375 C 41.359375 -73.847656 43.316406 -74.734375 45.453125 -75.390625 C 47.597656 -76.046875 50.023438 -76.375 52.734375 -76.375 C 60.847656 -76.375 67.117188 -73.898438 71.546875 -68.953125 C 75.972656 -64.015625 78.1875 -57.207031 78.1875 -48.53125 L 78.1875 0 L 56.921875 0 L 56.921875 -41.828125 C 56.921875 -46.859375 55.800781 -50.65625 53.5625 -53.21875 C 51.332031 -55.78125 48.164062 -57.0625 44.0625 -57.0625 C 39.957031 -57.0625 36.710938 -55.78125 34.328125 -53.21875 C 31.953125 -50.65625 30.765625 -46.859375 30.765625 -41.828125 L 30.765625 0 L 9.515625 0 Z M 9.515625 -102.109375 "/></g></g></g><g fill="#303030" fill-opacity="1"><g transform="translate(246.791799, 124.100374)"><g><path d="M 30.765625 1.40625 C 27.222656 1.40625 23.890625 0.914062 20.765625 -0.0625 C 17.640625 -1.039062 14.910156 -2.507812 12.578125 -4.46875 C 10.253906 -6.425781 8.414062 -8.828125 7.0625 -11.671875 C 5.707031 -14.523438 5.03125 -17.816406 5.03125 -21.546875 L 5.03125 -21.828125 C 5.03125 -25.921875 5.773438 -29.457031 7.265625 -32.4375 C 8.765625 -35.425781 10.84375 -37.898438 13.5 -39.859375 C 16.15625 -41.816406 19.320312 -43.285156 23 -44.265625 C 26.6875 -45.242188 30.769531 -45.734375 35.25 -45.734375 C 39.070312 -45.734375 42.40625 -45.453125 45.25 -44.890625 C 48.09375 -44.335938 50.867188 -43.59375 53.578125 -42.65625 L 53.578125 -43.921875 C 53.578125 -48.398438 52.222656 -51.800781 49.515625 -54.125 C 46.804688 -56.457031 42.796875 -57.625 37.484375 -57.625 C 33.378906 -57.625 29.765625 -57.273438 26.640625 -56.578125 C 23.515625 -55.878906 20.226562 -54.878906 16.78125 -53.578125 L 11.46875 -69.796875 C 15.570312 -71.566406 19.859375 -73.007812 24.328125 -74.125 C 28.804688 -75.25 34.21875 -75.8125 40.5625 -75.8125 C 46.4375 -75.8125 51.445312 -75.085938 55.59375 -73.640625 C 59.75 -72.191406 63.175781 -70.117188 65.875 -67.421875 C 68.675781 -64.617188 70.726562 -61.1875 72.03125 -57.125 C 73.34375 -53.070312 74 -48.53125 74 -43.5 L 74 0 L 53.4375 0 L 53.4375 -8.109375 C 50.820312 -5.222656 47.695312 -2.914062 44.0625 -1.1875 C 40.425781 0.539062 35.992188 1.40625 30.765625 1.40625 Z M 37.203125 -13.28125 C 42.242188 -13.28125 46.28125 -14.492188 49.3125 -16.921875 C 52.34375 -19.347656 53.859375 -22.519531 53.859375 -26.4375 L 53.859375 -30.21875 C 51.984375 -31.050781 49.90625 -31.722656 47.625 -32.234375 C 45.34375 -32.753906 42.894531 -33.015625 40.28125 -33.015625 C 35.71875 -33.015625 32.128906 -32.125 29.515625 -30.34375 C 26.898438 -28.570312 25.59375 -26.007812 25.59375 -22.65625 L 25.59375 -22.375 C 25.59375 -19.488281 26.664062 -17.25 28.8125 -15.65625 C 30.957031 -14.070312 33.753906 -13.28125 37.203125 -13.28125 Z M 37.203125 -13.28125 "/></g></g></g><g fill="#303030" fill-opacity="1"><g transform="translate(329.594401, 124.100374)"><g><path d="M 10.484375 -102.109375 L 31.75 -102.109375 L 31.75 0 L 10.484375 0 Z M 10.484375 -102.109375 "/></g></g></g><g fill="#303030" fill-opacity="1"><g transform="translate(371.834931, 124.100374)"><g><path d="M 30.765625 1.40625 C 27.222656 1.40625 23.890625 0.914062 20.765625 -0.0625 C 17.640625 -1.039062 14.910156 -2.507812 12.578125 -4.46875 C 10.253906 -6.425781 8.414062 -8.828125 7.0625 -11.671875 C 5.707031 -14.523438 5.03125 -17.816406 5.03125 -21.546875 L 5.03125 -21.828125 C 5.03125 -25.921875 5.773438 -29.457031 7.265625 -32.4375 C 8.765625 -35.425781 10.84375 -37.898438 13.5 -39.859375 C 16.15625 -41.816406 19.320312 -43.285156 23 -44.265625 C 26.6875 -45.242188 30.769531 -45.734375 35.25 -45.734375 C 39.070312 -45.734375 42.40625 -45.453125 45.25 -44.890625 C 48.09375 -44.335938 50.867188 -43.59375 53.578125 -42.65625 L 53.578125 -43.921875 C 53.578125 -48.398438 52.222656 -51.800781 49.515625 -54.125 C 46.804688 -56.457031 42.796875 -57.625 37.484375 -57.625 C 33.378906 -57.625 29.765625 -57.273438 26.640625 -56.578125 C 23.515625 -55.878906 20.226562 -54.878906 16.78125 -53.578125 L 11.46875 -69.796875 C 15.570312 -71.566406 19.859375 -73.007812 24.328125 -74.125 C 28.804688 -75.25 34.21875 -75.8125 40.5625 -75.8125 C 46.4375 -75.8125 51.445312 -75.085938 55.59375 -73.640625 C 59.75 -72.191406 63.175781 -70.117188 65.875 -67.421875 C 68.675781 -64.617188 70.726562 -61.1875 72.03125 -57.125 C 73.34375 -53.070312 74 -48.53125 74 -43.5 L 74 0 L 53.4375 0 L 53.4375 -8.109375 C 50.820312 -5.222656 47.695312 -2.914062 44.0625 -1.1875 C 40.425781 0.539062 35.992188 1.40625 30.765625 1.40625 Z M 37.203125 -13.28125 C 42.242188 -13.28125 46.28125 -14.492188 49.3125 -16.921875 C 52.34375 -19.347656 53.859375 -22.519531 53.859375 -26.4375 L 53.859375 -30.21875 C 51.984375 -31.050781 49.90625 -31.722656 47.625 -32.234375 C 45.34375 -32.753906 42.894531 -33.015625 40.28125 -33.015625 C 35.71875 -33.015625 32.128906 -32.125 29.515625 -30.34375 C 26.898438 -28.570312 25.59375 -26.007812 25.59375 -22.65625 L 25.59375 -22.375 C 25.59375 -19.488281 26.664062 -17.25 28.8125 -15.65625 C 30.957031 -14.070312 33.753906 -13.28125 37.203125 -13.28125 Z M 37.203125 -13.28125 "/></g></g></g><g fill="#303030" fill-opacity="1"><g transform="translate(454.637533, 124.100374)"><g><path d="M 35.8125 1.40625 C 30.488281 1.40625 25.050781 0.492188 19.5 -1.328125 C 13.957031 -3.148438 8.671875 -6.019531 3.640625 -9.9375 L 12.734375 -23.921875 C 16.835938 -20.929688 20.914062 -18.691406 24.96875 -17.203125 C 29.019531 -15.710938 32.820312 -14.96875 36.375 -14.96875 C 39.445312 -14.96875 41.703125 -15.476562 43.140625 -16.5 C 44.585938 -17.53125 45.3125 -18.882812 45.3125 -20.5625 L 45.3125 -20.84375 C 45.3125 -21.957031 44.890625 -22.929688 44.046875 -23.765625 C 43.210938 -24.609375 42.070312 -25.332031 40.625 -25.9375 C 39.1875 -26.550781 37.535156 -27.132812 35.671875 -27.6875 C 33.804688 -28.25 31.847656 -28.859375 29.796875 -29.515625 C 27.179688 -30.253906 24.546875 -31.160156 21.890625 -32.234375 C 19.234375 -33.304688 16.832031 -34.707031 14.6875 -36.4375 C 12.539062 -38.164062 10.789062 -40.285156 9.4375 -42.796875 C 8.082031 -45.316406 7.40625 -48.394531 7.40625 -52.03125 L 7.40625 -52.3125 C 7.40625 -56.132812 8.128906 -59.515625 9.578125 -62.453125 C 11.023438 -65.390625 12.984375 -67.882812 15.453125 -69.9375 C 17.921875 -71.988281 20.8125 -73.523438 24.125 -74.546875 C 27.4375 -75.578125 31.003906 -76.09375 34.828125 -76.09375 C 39.585938 -76.09375 44.414062 -75.320312 49.3125 -73.78125 C 54.207031 -72.238281 58.703125 -70.117188 62.796875 -67.421875 L 54.6875 -52.734375 C 50.957031 -54.878906 47.320312 -56.582031 43.78125 -57.84375 C 40.238281 -59.101562 37.113281 -59.734375 34.40625 -59.734375 C 31.800781 -59.734375 29.84375 -59.242188 28.53125 -58.265625 C 27.226562 -57.285156 26.578125 -56.046875 26.578125 -54.546875 L 26.578125 -54.265625 C 26.578125 -53.242188 26.992188 -52.335938 27.828125 -51.546875 C 28.671875 -50.753906 29.789062 -50.003906 31.1875 -49.296875 C 32.59375 -48.597656 34.203125 -47.921875 36.015625 -47.265625 C 37.835938 -46.617188 39.773438 -45.96875 41.828125 -45.3125 C 44.429688 -44.476562 47.085938 -43.476562 49.796875 -42.3125 C 52.503906 -41.144531 54.925781 -39.722656 57.0625 -38.046875 C 59.207031 -36.367188 60.976562 -34.316406 62.375 -31.890625 C 63.78125 -29.460938 64.484375 -26.523438 64.484375 -23.078125 L 64.484375 -22.796875 C 64.484375 -18.597656 63.757812 -14.984375 62.3125 -11.953125 C 60.863281 -8.921875 58.832031 -6.425781 56.21875 -4.46875 C 53.613281 -2.507812 50.5625 -1.039062 47.0625 -0.0625 C 43.570312 0.914062 39.820312 1.40625 35.8125 1.40625 Z M 35.8125 1.40625 "/></g></g></g><g fill="#303030" fill-opacity="1"><g transform="translate(524.851898, 124.100374)"><g><path d="M 30.765625 1.40625 C 27.222656 1.40625 23.890625 0.914062 20.765625 -0.0625 C 17.640625 -1.039062 14.910156 -2.507812 12.578125 -4.46875 C 10.253906 -6.425781 8.414062 -8.828125 7.0625 -11.671875 C 5.707031 -14.523438 5.03125 -17.816406 5.03125 -21.546875 L 5.03125 -21.828125 C 5.03125 -25.921875 5.773438 -29.457031 7.265625 -32.4375 C 8.765625 -35.425781 10.84375 -37.898438 13.5 -39.859375 C 16.15625 -41.816406 19.320312 -43.285156 23 -44.265625 C 26.6875 -45.242188 30.769531 -45.734375 35.25 -45.734375 C 39.070312 -45.734375 42.40625 -45.453125 45.25 -44.890625 C 48.09375 -44.335938 50.867188 -43.59375 53.578125 -42.65625 L 53.578125 -43.921875 C 53.578125 -48.398438 52.222656 -51.800781 49.515625 -54.125 C 46.804688 -56.457031 42.796875 -57.625 37.484375 -57.625 C 33.378906 -57.625 29.765625 -57.273438 26.640625 -56.578125 C 23.515625 -55.878906 20.226562 -54.878906 16.78125 -53.578125 L 11.46875 -69.796875 C 15.570312 -71.566406 19.859375 -73.007812 24.328125 -74.125 C 28.804688 -75.25 34.21875 -75.8125 40.5625 -75.8125 C 46.4375 -75.8125 51.445312 -75.085938 55.59375 -73.640625 C 59.75 -72.191406 63.175781 -70.117188 65.875 -67.421875 C 68.675781 -64.617188 70.726562 -61.1875 72.03125 -57.125 C 73.34375 -53.070312 74 -48.53125 74 -43.5 L 74 0 L 53.4375 0 L 53.4375 -8.109375 C 50.820312 -5.222656 47.695312 -2.914062 44.0625 -1.1875 C 40.425781 0.539062 35.992188 1.40625 30.765625 1.40625 Z M 37.203125 -13.28125 C 42.242188 -13.28125 46.28125 -14.492188 49.3125 -16.921875 C 52.34375 -19.347656 53.859375 -22.519531 53.859375 -26.4375 L 53.859375 -30.21875 C 51.984375 -31.050781 49.90625 -31.722656 47.625 -32.234375 C 45.34375 -32.753906 42.894531 -33.015625 40.28125 -33.015625 C 35.71875 -33.015625 32.128906 -32.125 29.515625 -30.34375 C 26.898438 -28.570312 25.59375 -26.007812 25.59375 -22.65625 L 25.59375 -22.375 C 25.59375 -19.488281 26.664062 -17.25 28.8125 -15.65625 C 30.957031 -14.070312 33.753906 -13.28125 37.203125 -13.28125 Z M 37.203125 -13.28125 "/></g></g></g><g fill="#303030" fill-opacity="1"><g transform="translate(604.857058, 124.100374)"><g><path d="M 2.796875 -74.96875 L 25.3125 -74.96875 L 42.109375 -24.765625 L 59.03125 -74.96875 L 81.125 -74.96875 L 51.609375 0.5625 L 32.3125 0.5625 Z M 2.796875 -74.96875 "/></g></g></g><g fill="#303030" fill-opacity="1"><g transform="translate(684.582524, 124.100374)"><g><path d="M 45.046875 1.671875 C 39.441406 1.671875 34.238281 0.738281 29.4375 -1.125 C 24.632812 -2.988281 20.484375 -5.644531 16.984375 -9.09375 C 13.492188 -12.539062 10.769531 -16.617188 8.8125 -21.328125 C 6.851562 -26.035156 5.875 -31.28125 5.875 -37.0625 L 5.875 -37.34375 C 5.875 -42.65625 6.78125 -47.691406 8.59375 -52.453125 C 10.414062 -57.210938 12.957031 -61.363281 16.21875 -64.90625 C 19.488281 -68.445312 23.382812 -71.242188 27.90625 -73.296875 C 32.425781 -75.347656 37.4375 -76.375 42.9375 -76.375 C 49.1875 -76.375 54.59375 -75.253906 59.15625 -73.015625 C 63.726562 -70.773438 67.53125 -67.765625 70.5625 -63.984375 C 73.59375 -60.210938 75.832031 -55.878906 77.28125 -50.984375 C 78.726562 -46.085938 79.453125 -40.984375 79.453125 -35.671875 C 79.453125 -34.828125 79.425781 -33.9375 79.375 -33 C 79.332031 -32.070312 79.265625 -31.097656 79.171875 -30.078125 L 27 -30.078125 C 28.019531 -25.222656 30.140625 -21.5625 33.359375 -19.09375 C 36.578125 -16.625 40.5625 -15.390625 45.3125 -15.390625 C 48.863281 -15.390625 52.035156 -15.992188 54.828125 -17.203125 C 57.628906 -18.410156 60.519531 -20.367188 63.5 -23.078125 L 75.671875 -12.3125 C 72.128906 -7.925781 67.835938 -4.5 62.796875 -2.03125 C 57.765625 0.4375 51.847656 1.671875 45.046875 1.671875 Z M 58.75 -43.359375 C 58.09375 -48.117188 56.410156 -51.96875 53.703125 -54.90625 C 51.003906 -57.84375 47.414062 -59.3125 42.9375 -59.3125 C 38.46875 -59.3125 34.851562 -57.863281 32.09375 -54.96875 C 29.34375 -52.082031 27.550781 -48.210938 26.71875 -43.359375 Z M 58.75 -43.359375 "/></g></g></g><g fill="#303030" fill-opacity="1"><g transform="translate(770.322369, 124.100374)"><g><path d="M 35.8125 1.40625 C 30.488281 1.40625 25.050781 0.492188 19.5 -1.328125 C 13.957031 -3.148438 8.671875 -6.019531 3.640625 -9.9375 L 12.734375 -23.921875 C 16.835938 -20.929688 20.914062 -18.691406 24.96875 -17.203125 C 29.019531 -15.710938 32.820312 -14.96875 36.375 -14.96875 C 39.445312 -14.96875 41.703125 -15.476562 43.140625 -16.5 C 44.585938 -17.53125 45.3125 -18.882812 45.3125 -20.5625 L 45.3125 -20.84375 C 45.3125 -21.957031 44.890625 -22.929688 44.046875 -23.765625 C 43.210938 -24.609375 42.070312 -25.332031 40.625 -25.9375 C 39.1875 -26.550781 37.535156 -27.132812 35.671875 -27.6875 C 33.804688 -28.25 31.847656 -28.859375 29.796875 -29.515625 C 27.179688 -30.253906 24.546875 -31.160156 21.890625 -32.234375 C 19.234375 -33.304688 16.832031 -34.707031 14.6875 -36.4375 C 12.539062 -38.164062 10.789062 -40.285156 9.4375 -42.796875 C 8.082031 -45.316406 7.40625 -48.394531 7.40625 -52.03125 L 7.40625 -52.3125 C 7.40625 -56.132812 8.128906 -59.515625 9.578125 -62.453125 C 11.023438 -65.390625 12.984375 -67.882812 15.453125 -69.9375 C 17.921875 -71.988281 20.8125 -73.523438 24.125 -74.546875 C 27.4375 -75.578125 31.003906 -76.09375 34.828125 -76.09375 C 39.585938 -76.09375 44.414062 -75.320312 49.3125 -73.78125 C 54.207031 -72.238281 58.703125 -70.117188 62.796875 -67.421875 L 54.6875 -52.734375 C 50.957031 -54.878906 47.320312 -56.582031 43.78125 -57.84375 C 40.238281 -59.101562 37.113281 -59.734375 34.40625 -59.734375 C 31.800781 -59.734375 29.84375 -59.242188 28.53125 -58.265625 C 27.226562 -57.285156 26.578125 -56.046875 26.578125 -54.546875 L 26.578125 -54.265625 C 26.578125 -53.242188 26.992188 -52.335938 27.828125 -51.546875 C 28.671875 -50.753906 29.789062 -50.003906 31.1875 -49.296875 C 32.59375 -48.597656 34.203125 -47.921875 36.015625 -47.265625 C 37.835938 -46.617188 39.773438 -45.96875 41.828125 -45.3125 C 44.429688 -44.476562 47.085938 -43.476562 49.796875 -42.3125 C 52.503906 -41.144531 54.925781 -39.722656 57.0625 -38.046875 C 59.207031 -36.367188 60.976562 -34.316406 62.375 -31.890625 C 63.78125 -29.460938 64.484375 -26.523438 64.484375 -23.078125 L 64.484375 -22.796875 C 64.484375 -18.597656 63.757812 -14.984375 62.3125 -11.953125 C 60.863281 -8.921875 58.832031 -6.425781 56.21875 -4.46875 C 53.613281 -2.507812 50.5625 -1.039062 47.0625 -0.0625 C 43.570312 0.914062 39.820312 1.40625 35.8125 1.40625 Z M 35.8125 1.40625 "/></g></g></g><g clip-path="url(#6e05918acc)"><path fill="#303030" d="M 135.746094 61.742188 C 136.4375 65.894531 134.015625 72.117188 126.753906 73.15625 L 100.125 79.726562 C 97.703125 80.417969 97.011719 82.492188 98.742188 84.570312 L 116.726562 105.664062 C 121.914062 111.890625 120.183594 119.152344 114.996094 121.574219 L 103.582031 129.527344 C 99.78125 132.292969 93.554688 130.910156 89.40625 124.683594 L 75.226562 100.824219 C 73.84375 98.746094 71.769531 98.746094 70.386719 100.824219 L 55.863281 124.683594 C 52.058594 130.910156 45.832031 132.289062 41.6875 129.527344 L 29.234375 120.535156 L 28.890625 120.535156 C 25.089844 117.078125 24.742188 110.855469 28.890625 105.667969 L 46.875 84.570312 C 48.601562 82.496094 47.910156 80.769531 45.492188 80.078125 L 15.75 72.472656 C 10.21875 70.394531 8.488281 65.207031 10.21875 61.058594 L 15.058594 45.496094 C 17.132812 41 23.011719 39.269531 29.234375 41.691406 L 54.136719 52.066406 C 56.902344 53.105469 58.285156 52.066406 58.285156 49.300781 L 55.863281 21.636719 C 55.863281 15.066406 60.015625 10.222656 64.855469 10.222656 L 80.765625 10.222656 C 86.296875 10.222656 89.410156 15.410156 89.410156 21.980469 L 87.332031 49.296875 C 87.332031 52.066406 88.714844 53.101562 91.140625 52.066406 L 116.382812 41.6875 C 122.609375 38.925781 128.832031 41.34375 130.90625 46.53125 L 135.75 61.402344 L 135.75 61.746094 Z M 135.746094 61.742188 " fill-opacity="1" fill-rule="nonzero"/></g></svg>