<svg width="369" height="75" viewBox="0 0 369 75" fill="none" xmlns="http://www.w3.org/2000/svg">
<path d="M120.451 4.802H129.607L159.725 43.674V4.802H169.443V61.0218H161.17L130.169 21.0254V61.0218H120.451V4.802Z" fill="#303030"/>
<path d="M200.688 53.5526C202.669 53.5526 204.436 53.2046 205.989 52.5085C207.595 51.7589 208.96 50.7684 210.085 49.5369C211.209 48.3054 212.066 46.8865 212.655 45.2803C213.244 43.6204 213.538 41.8803 213.538 40.0598V39.8992C213.538 38.0252 213.217 36.2583 212.574 34.5985C211.932 32.9387 211.022 31.493 209.844 30.2615C208.719 29.0301 207.354 28.0663 205.748 27.3702C204.195 26.6206 202.455 26.2458 200.527 26.2458C198.6 26.2458 196.833 26.6206 195.227 27.3702C193.674 28.0663 192.335 29.0301 191.211 30.2615C190.087 31.4395 189.23 32.8584 188.641 34.5182C188.052 36.178 187.757 37.9181 187.757 39.7386V39.8992C187.757 41.7732 188.079 43.5401 188.721 45.1999C189.364 46.8062 190.247 48.2519 191.372 49.5369C192.55 50.7684 193.915 51.7589 195.468 52.5085C197.074 53.2046 198.814 53.5526 200.688 53.5526ZM200.527 61.9856C197.315 61.9856 194.316 61.4234 191.532 60.299C188.802 59.121 186.419 57.5415 184.384 55.5604C182.403 53.5794 180.85 51.2503 179.726 48.5731C178.602 45.896 178.039 43.0582 178.039 40.0598V39.8992C178.039 36.8473 178.602 33.9828 179.726 31.3056C180.904 28.6285 182.483 26.2994 184.465 24.3183C186.499 22.2837 188.882 20.6774 191.613 19.4995C194.397 18.3215 197.422 17.7326 200.688 17.7326C203.954 17.7326 206.952 18.3215 209.683 19.4995C212.467 20.6239 214.85 22.2034 216.831 24.238C218.866 26.2191 220.445 28.5482 221.57 31.2253C222.694 33.8489 223.256 36.6867 223.256 39.7386V39.8992C223.256 42.8976 222.667 45.7354 221.489 48.4125C220.365 51.0896 218.785 53.4455 216.751 55.4801C214.77 57.4612 212.387 59.0407 209.603 60.2187C206.819 61.3966 203.793 61.9856 200.527 61.9856Z" fill="#303030"/>
<path d="M245.361 61.9053C240.542 61.9053 236.821 60.4328 234.197 57.488C231.574 54.5431 230.262 50.581 230.262 45.6015V18.616H239.98V42.7102C239.98 46.0299 240.756 48.5999 242.309 50.4204C243.915 52.1873 246.164 53.0707 249.055 53.0707C251.893 53.0707 254.195 52.1605 255.962 50.34C257.729 48.466 258.613 45.8692 258.613 42.5496V18.616H268.331V61.0218H258.613V54.4361C257.22 56.4707 255.48 58.2376 253.392 59.7368C251.304 61.1824 248.627 61.9053 245.361 61.9053Z" fill="#303030"/>
<path d="M278.138 18.616H287.856V28.1734C289.195 24.9608 291.096 22.3908 293.559 20.4632C296.022 18.5357 299.127 17.6522 302.875 17.8129V28.0931H302.313C300.171 28.0931 298.217 28.4411 296.45 29.1371C294.683 29.8332 293.157 30.8773 291.872 32.2694C290.587 33.6615 289.596 35.4284 288.9 37.5701C288.204 39.6583 287.856 42.0945 287.856 44.8787V61.0218H278.138V18.616Z" fill="#303030"/>
<path d="M309.468 2.39258H319.186V61.0218H309.468V2.39258Z" fill="#303030"/>
<path d="M338.15 74.113C336.116 74.113 334.295 73.872 332.689 73.3902C331.136 72.9618 329.61 72.3461 328.111 71.5429L331.404 64.3147C332.314 64.7966 333.224 65.1714 334.135 65.4391C335.098 65.7603 336.089 65.921 337.106 65.921C338.498 65.921 339.65 65.5729 340.56 64.8769C341.47 64.1808 342.327 62.8958 343.13 61.0218L325.461 18.616H335.821L347.868 50.0991L358.871 18.616H368.991L352.125 62.2265C351.268 64.4218 350.385 66.269 349.475 67.7682C348.564 69.2674 347.547 70.4721 346.423 71.3823C345.298 72.3461 344.067 73.0421 342.728 73.4705C341.39 73.8988 339.864 74.113 338.15 74.113Z" fill="#303030"/>
<path fill-rule="evenodd" clip-rule="evenodd" d="M62.5234 53.2586C59.5448 57.7512 55.5948 61.4998 50.9791 64.235C55.2664 65.8684 59.8585 66.5908 64.4607 66.3406C70.0158 66.0386 75.4036 64.3301 80.1185 61.377C84.8333 58.4239 88.7218 54.3222 91.4183 49.456C94.1145 44.5899 95.5306 39.1188 95.5349 33.5557C95.5134 25.0951 92.2368 16.9663 86.3683 10.8677C80.4734 4.74181 72.4318 1.14064 63.9362 0.821796C55.4408 0.503073 47.1527 3.4913 40.8153 9.15798C38.1913 11.5043 35.9873 14.2346 34.2596 17.2299C38.0651 14.1966 42.9348 12.6857 47.7519 12.6856C57.3893 12.6856 67.2343 18.7338 68.3546 30.9199L68.3848 31.1821C68.4104 31.4453 68.4233 31.7101 68.4233 31.9761C68.4262 32.0576 68.4262 32.1391 68.4233 32.2206V35.255L68.4212 35.2904C68.1085 41.6843 66.081 47.8762 62.5512 53.2167L62.5389 53.2353L62.5234 53.2586Z" fill="#303030"/>
<path fill-rule="evenodd" clip-rule="evenodd" d="M56.5634 56.2251C54.6461 58.234 52.489 59.9839 50.148 61.4393C52.4994 59.976 54.6553 58.224 56.5634 56.2251ZM61.2165 50.0222C60.3288 51.5539 59.3149 53.0186 58.18 54.3999C58.8981 53.5256 59.57 52.6102 60.1974 51.661C60.5513 51.1256 60.8956 50.5754 61.2165 50.0222Z" fill="white"/>
<path fill-rule="evenodd" clip-rule="evenodd" d="M47.1275 63.1054C48.1658 62.6019 49.1738 62.0455 50.148 61.4393C52.489 59.9839 54.6461 58.234 56.5634 56.2251C57.1232 55.6385 57.6625 55.0298 58.18 54.3999C59.3149 53.0186 60.3288 51.5539 61.2165 50.0222C57.4373 53.0207 52.6069 54.5288 47.824 54.5373C37.9333 54.5546 27.8184 48.1882 27.0746 35.3685C27.0683 35.2705 27.0685 35.1712 27.0725 35.073V32.0896C27.0685 31.9791 27.0688 31.8681 27.0757 31.7577L27.0777 31.7119L27.084 31.6661C27.1143 31.429 27.1287 31.1968 27.1287 30.97V30.9169L27.1329 30.8638C27.6049 24.6463 29.7004 18.6614 33.2089 13.5067C36.1578 9.17434 40.0185 5.55569 44.5066 2.89684C38.8409 0.737977 32.6685 0.182457 26.6761 1.32451C19.7457 2.64539 13.4252 6.16472 8.65197 11.36C3.87878 16.5553 0.906704 23.1505 0.176343 30.1677C-0.55401 37.185 0.996684 44.2507 4.59782 50.3177C8.19897 56.3846 13.6593 61.1299 20.1692 63.8496C26.6791 66.5692 33.8919 67.1187 40.7386 65.4167C42.9549 64.8658 45.0952 64.0898 47.1275 63.1054Z" fill="#303030"/>
<path fill-rule="evenodd" clip-rule="evenodd" d="M68.4212 35.2904C68.1085 41.6843 66.081 47.8762 62.5512 53.2167C66.069 47.8948 68.1104 41.7075 68.4212 35.2904ZM50.9791 64.235C55.5948 61.4998 59.5448 57.7512 62.5234 53.2586C61.854 54.2685 61.1346 55.2491 60.3601 56.1918C57.7084 59.4192 54.5282 62.1338 50.9791 64.235Z" fill="white"/>
</svg>
