<svg xmlns="http://www.w3.org/2000/svg" xmlns:xlink="http://www.w3.org/1999/xlink" width="500" zoomAndPan="magnify" viewBox="0 0 375 374.999991" height="500" preserveAspectRatio="xMidYMid meet" version="1.0"><defs><clipPath id="2c05e18b39"><path d="M 22 27.191406 L 354 27.191406 L 354 345 L 22 345 Z M 22 27.191406 " clip-rule="nonzero"/></clipPath></defs><g clip-path="url(#2c05e18b39)"><path fill="#303030" d="M 353.640625 162.539062 C 355.457031 173.441406 349.101562 189.773438 330.039062 192.503906 L 260.132812 209.753906 C 253.777344 211.566406 251.964844 217.011719 256.503906 222.460938 L 303.710938 277.839844 C 317.328125 294.183594 312.789062 313.246094 299.171875 319.601562 L 269.210938 340.480469 C 259.230469 347.746094 242.882812 344.117188 231.996094 327.769531 L 194.773438 265.128906 C 191.144531 259.679688 185.695312 259.679688 182.0625 265.128906 L 143.9375 327.769531 C 133.953125 344.117188 117.609375 347.738281 106.722656 340.480469 L 74.039062 316.882812 L 73.132812 316.882812 C 63.148438 307.804688 62.238281 291.464844 73.132812 277.84375 L 120.339844 222.46875 C 124.878906 217.019531 123.058594 212.484375 116.710938 210.671875 L 38.636719 190.703125 C 24.113281 185.253906 19.574219 171.632812 24.113281 160.738281 L 36.820312 119.894531 C 42.265625 108.089844 57.699219 103.546875 74.039062 109.902344 L 139.402344 137.140625 C 146.664062 139.859375 150.296875 137.140625 150.296875 129.878906 L 143.945312 57.253906 C 143.945312 40.003906 154.839844 27.289062 167.546875 27.289062 L 209.308594 27.289062 C 223.832031 27.289062 232.003906 40.90625 232.003906 58.15625 L 226.550781 129.871094 C 226.550781 137.136719 230.179688 139.855469 236.542969 137.136719 L 302.8125 109.894531 C 319.15625 102.636719 335.496094 108.992188 340.941406 122.613281 L 353.648438 161.644531 L 353.648438 162.546875 Z M 353.640625 162.539062 " fill-opacity="1" fill-rule="nonzero"/></g></svg>