<svg width="184" height="126" viewBox="0 0 184 126" fill="none" xmlns="http://www.w3.org/2000/svg">
<path fill-rule="evenodd" clip-rule="evenodd" d="M120.156 100.767C114.462 109.355 106.912 116.52 98.0891 121.748C106.284 124.87 115.062 126.251 123.859 125.773C134.477 125.196 144.776 121.93 153.788 116.285C162.801 110.64 170.234 102.8 175.388 93.4985C180.542 84.1972 183.248 73.7392 183.257 63.1055C183.216 46.9331 176.952 31.3951 165.735 19.7377C154.467 8.02822 139.095 1.14467 122.856 0.535199C106.618 -0.0740348 90.775 5.63791 78.6612 16.4697C73.6455 20.9546 69.4325 26.1735 66.13 31.8989C73.4043 26.1008 82.7125 23.2128 91.9203 23.2126C110.342 23.2126 129.161 34.7737 131.302 58.0671L131.36 58.5684C131.409 59.0715 131.433 59.5775 131.433 60.086C131.439 60.2419 131.439 60.3976 131.433 60.5535V66.3536L131.429 66.4212C130.832 78.643 126.956 90.4788 120.209 100.687L120.185 100.723L120.156 100.767Z" fill="#303030"/>
<path fill-rule="evenodd" clip-rule="evenodd" d="M108.763 106.437C105.099 110.278 100.975 113.622 96.5004 116.404C100.995 113.607 105.116 110.258 108.763 106.437ZM117.658 94.5807C115.961 97.5085 114.023 100.308 111.854 102.949C113.226 101.277 114.51 99.5277 115.71 97.7133C116.386 96.6899 117.044 95.6382 117.658 94.5807Z" fill="white"/>
<path fill-rule="evenodd" clip-rule="evenodd" d="M90.7269 119.589C92.7115 118.627 94.6383 117.563 96.5004 116.404C100.975 113.622 105.099 110.278 108.763 106.437C109.833 105.316 110.864 104.153 111.854 102.949C114.023 100.308 115.961 97.5085 117.658 94.5807C110.434 100.312 101.201 103.195 92.0583 103.211C73.1523 103.244 53.8178 91.0752 52.3962 66.5706C52.3842 66.3832 52.3845 66.1933 52.3922 66.0057V60.3031C52.3845 60.0917 52.3851 59.8797 52.3981 59.6685L52.4021 59.581L52.4141 59.4935C52.4719 59.0402 52.4996 58.5965 52.4996 58.1628V58.0614L52.5075 57.9599C53.4098 46.0753 57.4152 34.6352 64.1217 24.7822C69.7585 16.5009 77.138 9.58394 85.7171 4.50161C74.8872 0.374981 63.0887 -0.686886 51.6343 1.49612C38.3871 4.02095 26.3056 10.7481 17.1816 20.6787C8.05776 30.6094 2.3767 43.216 0.980631 56.6292C-0.415424 70.0427 2.5487 83.5488 9.4322 95.1456C16.3157 106.742 26.753 115.813 39.1967 121.012C51.6401 126.21 65.4273 127.26 78.5147 124.007C82.751 122.954 86.8422 121.471 90.7269 119.589Z" fill="#303030"/>
<path fill-rule="evenodd" clip-rule="evenodd" d="M131.429 66.4212C130.832 78.643 126.956 90.4788 120.209 100.687C126.933 90.5143 130.835 78.6874 131.429 66.4212ZM98.0891 121.748C106.912 116.52 114.462 109.355 120.156 100.767C118.876 102.697 117.501 104.572 116.021 106.374C110.952 112.543 104.873 117.732 98.0891 121.748Z" fill="white"/>
</svg>
